{"title":"Sherlock S03E03 His Last Vow 480p HDTV x264 AAC E-Subs [GWC].mp4","uid":9472778,"size":254833217,"categoryP":"video","categoryS":"tv_shows","magnet":"?xt=urn:btih:8da11b1f34a5436dd02251cf31c9df80ae193a20&amp;dn=Sherlock+S03E03+His+Last+Vow+480p+HDTV+x264+AAC+E-Subs+%5BGWC%5D.mp4&amp;tr=udp%3A%2F%2Ftracker.openbittorrent.com%3A80&amp;tr=udp%3A%2F%2Fopen.demonii.com%3A1337&amp;tr=udp%3A%2F%2Ftracker.coppersurfer.tk%3A6969&amp;tr=udp%3A%2F%2Fexodus.desync.com%3A6969","seeders":1,"leechers":0,"uploader":"canc232","files":1,"time":1389620774,"description":"Sherlock S03E03 His Last Vow 480p HDTV X264 AAC E-Subs [GWC] \n\n\nSCREENS ; &lt;a href=&quot;\nhttp://s20.postimg.org/6nr5hwnst/Sherlock_S03_E03_His_Last_Vow_17_55_00.jpg&quot; rel=&quot;nofollow&quot; target=&quot;_NEW&quot;&gt;\nhttp://s20.postimg.org/6nr5hwnst/Sherlock_S03_E03_His_Last_Vow_17_55_00.jpg&lt;/a&gt; &lt;a href=&quot;\nhttp://s20.postimg.org/y0wccnud9/Sherlock_S03_E03_His_Last_Vow_17_56_01.jpg&quot; rel=&quot;nofollow&quot; target=&quot;_NEW&quot;&gt;\nhttp://s20.postimg.org/y0wccnud9/Sherlock_S03_E03_His_Last_Vow_17_56_01.jpg&lt;/a&gt; &lt;a href=&quot;\nhttp://s20.postimg.org/4kgqa8nzx/Sherlock_S03_E03_His_Last_Vow_17_56_10.jpg&quot; rel=&quot;nofollow&quot; target=&quot;_NEW&quot;&gt;\nhttp://s20.postimg.org/4kgqa8nzx/Sherlock_S03_E03_His_Last_Vow_17_56_10.jpg&lt;/a&gt;\n\n\nMEDIA INFO :\nGeneral \nFormat : MPEG-4 \nFormat profile : Base Media \nFile size : 243 MiB \nDuration : 1h 29mn \nOverall bit rate mode : Variable \nOverall bit rate : 380 Kbps  \n\nVideo \nFormat : AVC \nFormat profile : &lt;a class=&quot;__cf_email__&quot; href=&quot;/cdn-cgi/l/email-protection&quot; data-cfemail=&quot;e6ae8f818ea6aad5c8d6&quot;&gt;[email&amp;#160;protected]&lt;/a&gt;&lt;script cf-hash='f9e31' type=&quot;text/javascript&quot;&gt;\n/* &lt;![CDATA[ */!function(){try{var t=&quot;currentScript&quot;in document?document.currentScript:function(){for(var t=document.getElementsByTagName(&quot;script&quot;),e=t.length;e--;)if(t[e].getAttribute(&quot;cf-hash&quot;))return t[e]}();if(t&amp;&amp;t.previousSibling){var e,r,n,i,c=t.previousSibling,a=c.getAttribute(&quot;data-cfemail&quot;);if(a){for(e=&quot;&quot;,r=parseInt(a.substr(0,2),16),n=2;a.length-n;n+=2)i=parseInt(a.substr(n,2),16)^r,e+=String.fromCharCode(i);e=document.createTextNode(e),c.parentNode.replaceChild(e,c)}}}catch(u){}}();/* ]]&gt; */&lt;/script&gt; \nFormat settings, CABAC : Yes \nFormat settings, ReFrames : 4 frames \nDuration : 1h 29mn \nBit rate : 318 Kbps \nMaximum bit rate : 5 386 Kbps \nWidth : 720 pixels \nHeight : 404 pixels \nFrame rate mode : Constant \nFrame rate : 25.000 fps \nStream size : 203 MiB (83%) \nTitle : Sherlock S03E03 His Last Vow 480p HDTV X264 AAC E-Subs [GWC] \nWriting library : x264 core\nLanguage : English \n\nAudio \nFormat : AAC \nFormat profile : HE-AAC / LC \nDuration : 1h 29mn \nBit rate mode : Variable \nChannel(s) : 2 channels \nSampling rate : 48.0 KHz / 24.0 KHz \nStream size : 38.3 MiB \nLanguage : English \n\nText \nFormat : Timed Text \nDuration : 1h 29mn \nBit rate mode : Variable \nStream size : 52.3 KiB (0%) \nLanguage : English ","torrent":{"xt":"urn:btih:8da11b1f34a5436dd02251cf31c9df80ae193a20","amp;dn":"Sherlock+S03E03+His+Last+Vow+480p+HDTV+x264+AAC+E-Subs+%5BGWC%5D.mp4","amp;tr":["udp%3A%2F%2Ftracker.openbittorrent.com%3A80","udp%3A%2F%2Fopen.demonii.com%3A1337","udp%3A%2F%2Ftracker.coppersurfer.tk%3A6969","udp%3A%2F%2Fexodus.desync.com%3A6969"],"infoHash":"8da11b1f34a5436dd02251cf31c9df80ae193a20","infoHashBuffer":{"type":"Buffer","data":[141,161,27,31,52,165,67,109,208,34,81,207,49,201,223,128,174,25,58,32]},"announce":[],"urlList":[]}}